<svg width="24" height="24" viewBox="0 0 24 24" fill="none" xmlns="http://www.w3.org/2000/svg">
  <!-- Cámara Sharp Style - Material Design -->
  <path d="M9 3L7.17 5H4C2.9 5 2 5.9 2 7V17C2 18.1 2.9 19 4 19H20C21.1 19 22 18.1 22 17V7C22 5.9 21.1 5 20 5H16.83L15 3H9ZM12 17C9.24 17 7 14.76 7 12C7 9.24 9.24 7 12 7C14.76 7 17 9.24 17 12C17 14.76 14.76 17 12 17Z" fill="#6C5D4F" stroke="#6C5D4F" stroke-width="0.5"/>
  <!-- Lente circular -->
  <circle cx="12" cy="12" r="3.5" fill="#8B6F47" stroke="#6C5D4F" stroke-width="0.3"/>
  <!-- Punto central del lente -->
  <circle cx="12" cy="12" r="1" fill="#A67C52"/>
  <!-- Flash -->
  <rect x="16" y="7" width="2" height="1" fill="#C4A57B"/>
</svg>
