<svg width="24" height="24" viewBox="0 0 24 24" fill="none" xmlns="http://www.w3.org/2000/svg">
  <!-- Carrito lindo estilo cafetería -->
  <defs>
    <linearGradient id="cartBody" x1="0%" y1="0%" x2="100%" y2="100%">
      <stop offset="0%" style="stop-color:#C4A57B"/>
      <stop offset="50%" style="stop-color:#A67C52"/>
      <stop offset="100%" style="stop-color:#8B6F47"/>
    </linearGradient>
  </defs>

  <!-- Cesta principal -->
  <path d="M6 8 Q6 6 8 6 L16 6 Q18 6 18 8 L18 16 Q18 18 16 18 L8 18 Q6 18 6 16 Z" fill="url(#cartBody)" stroke="#6C5D4F" stroke-width="0.5"/>

  <!-- Asa elegante curva -->
  <path d="M7 6 Q12 4 17 6" stroke="#8B6F47" stroke-width="2" fill="none"/>
  <circle cx="7" cy="6" r="0.8" fill="#A67C52"/>
  <circle cx="17" cy="6" r="0.8" fill="#A67C52"/>

  <!-- Ruedas bonitas -->
  <circle cx="8" cy="19" r="2" fill="#6C5D4F"/>
  <circle cx="8" cy="19" r="1.3" fill="#3E2723"/>
  <circle cx="16" cy="19" r="2" fill="#6C5D4F"/>
  <circle cx="16" cy="19" r="1.3" fill="#3E2723"/>

  <!-- Ejes de las ruedas -->
  <rect x="6" y="18.5" width="4" height="1" fill="#5D3E2A" rx="0.5"/>
  <rect x="14" y="18.5" width="4" height="1" fill="#5D3E2A" rx="0.5"/>

  <!-- Productos en el carrito (representando café) -->
  <ellipse cx="10" cy="10" rx="1.5" ry="1" fill="#8B6F47" opacity="0.7"/>
  <ellipse cx="14" cy="11" rx="1.2" ry="0.8" fill="#A67C52" opacity="0.6"/>

  <!-- Pequeño lazo decorativo -->
  <path d="M11 7 Q12 6 13 7 Q12 8 11 7" fill="#C4A57B" opacity="0.8"/>

  <!-- Sombra sutil -->
  <ellipse cx="12" cy="20" rx="8" ry="1.5" fill="#5D3E2A" opacity="0.1"/>
</svg>
