<svg width="24" height="24" viewBox="0 0 24 24" fill="none" xmlns="http://www.w3.org/2000/svg">
  <!-- Carrito Sharp Style - Material Design -->
  <!-- Cuerpo principal del carrito -->
  <path d="M7 18C7 19.1 7.9 20 9 20C10.1 20 11 19.1 11 18C11 16.9 10.1 16 9 16C7.9 16 7 16.9 7 18ZM20 18C20 19.1 20.9 21 22 21C23.1 21 24 20.1 24 18C24 16.9 23.1 16 22 16C20.9 16 20 16.9 20 18ZM8.58 7.58L9.29 9H18.41C19.15 9 19.66 9.57 19.61 10.29L19.22 13.78L8.58 7.58Z" fill="#6C5D4F"/>
  <!-- Asa del carrito -->
  <path d="M20.88 10.32L20.31 13H9.29L6.12 6.09L4.37 7.84L7.55 14.76C7.68 15.1 8.01 15.34 8.37 15.34H19.23C19.59 15.34 19.88 15.1 20.01 14.76L21.76 7.84L20.88 10.32Z" fill="#6C5D4F"/>
  <!-- Ruedas -->
  <circle cx="9" cy="20" r="2" fill="#8B6F47" stroke="#6C5D4F" stroke-width="0.3"/>
  <circle cx="20" cy="20" r="2" fill="#8B6F47" stroke="#6C5D4F" stroke-width="0.3"/>
</svg>
