<svg width="24" height="24" viewBox="0 0 24 24" fill="none" xmlns="http://www.w3.org/2000/svg">
  <!-- Chat lindo estilo cafetería -->
  <defs>
    <linearGradient id="chatBubble" x1="0%" y1="0%" x2="100%" y2="100%">
      <stop offset="0%" style="stop-color:#C4A57B"/>
      <stop offset="50%" style="stop-color:#A67C52"/>
      <stop offset="100%" style="stop-color:#8B6F47"/>
    </linearGradient>
  </defs>

  <!-- Burbuja principal -->
  <path d="M20 2H4C2.9 2 2 2.9 2 4V16C2 17.1 2.9 18 4 18H18L22 22V4C22 2.9 21.1 2 20 2Z" fill="url(#chatBubble)" stroke="#6C5D4F" stroke-width="0.5"/>

  <!-- Cola de la burbuja -->
  <path d="M18 18L20 20V18H18Z" fill="url(#chatBubble)"/>

  <!-- Burbujas de diálogo internas -->
  <ellipse cx="8" cy="8" rx="2.5" ry="1.5" fill="#E8C4A0" opacity="0.8"/>
  <ellipse cx="12" cy="11" rx="3" ry="1.8" fill="#E8C4A0" opacity="0.7"/>
  <ellipse cx="7" cy="14" rx="2" ry="1.2" fill="#E8C4A0" opacity="0.6"/>

  <!-- Vapor de café saliendo del chat -->
  <g opacity="0.8">
    <path d="M16 6 Q17 4 18 6" stroke="#D4A574" stroke-width="1" fill="none">
      <animate attributeName="d" values="M16 6 Q17 4 18 6;M16 6 Q17 3 18 6" dur="2s" repeatCount="indefinite"/>
    </path>
    <path d="M19 7 Q20 5 21 7" stroke="#D4A574" stroke-width="0.8" fill="none">
      <animate attributeName="d" values="M19 7 Q20 5 21 7;M19 7 Q20 4 21 7" dur="2.3s" repeatCount="indefinite"/>
    </path>
  </g>

  <!-- Pequeñas estrellas de emoción -->
  <g opacity="0.6">
    <path d="M15 9 L15.5 8.5 L16 9 L15.5 9.5 Z" fill="#F8F5F0"/>
    <path d="M17 12 L17.5 11.5 L18 12 L17.5 12.5 Z" fill="#F8F5F0"/>
  </g>

  <!-- Indicador de escritura animado -->
  <g>
    <circle cx="16" cy="15" r="0.8" fill="#A67C52">
      <animate attributeName="r" values="0.8;1.2;0.8" dur="1.5s" repeatCount="indefinite"/>
    </circle>
    <circle cx="17.5" cy="15" r="0.8" fill="#A67C52">
      <animate attributeName="r" values="0.8;1.2;0.8" dur="1.5s" begin="0.3s" repeatCount="indefinite"/>
    </circle>
    <circle cx="19" cy="15" r="0.8" fill="#A67C52">
      <animate attributeName="r" values="0.8;1.2;0.8" dur="1.5s" begin="0.6s" repeatCount="indefinite"/>
    </circle>
  </g>

  <!-- Brillo sutil -->
  <ellipse cx="12" cy="10" rx="3" ry="2" fill="#F5E6D3" opacity="0.3"/>
</svg>
