<svg width="24" height="24" viewBox="0 0 24 24" fill="none" xmlns="http://www.w3.org/2000/svg">
  <!-- Ícono de chat perfecto y expresivo -->
  <defs>
    <!-- Gradiente para la burbuja -->
    <linearGradient id="chatBubbleGrad" x1="0%" y1="0%" x2="100%" y2="100%">
      <stop offset="0%" style="stop-color:#C4A57B"/>
      <stop offset="50%" style="stop-color:#A67C52"/>
      <stop offset="100%" style="stop-color:#8B6F47"/>
    </linearGradient>
    <!-- Sombra sutil -->
    <filter id="chatShadow" x="-20%" y="-20%" width="140%" height="140%">
      <feDropShadow dx="0" dy="1" stdDeviation="0.5" flood-color="#3E2723" flood-opacity="0.15"/>
    </filter>
  </defs>

  <!-- Burbuja principal -->
  <path d="M20 2H4C2.9 2 2 2.9 2 4V16C2 17.1 2.9 18 4 18H18L22 22V4C22 2.9 21.1 2 20 2Z" fill="url(#chatBubbleGrad)" stroke="#6D4C41" stroke-width="0.5" filter="url(#chatShadow)"/>

  <!-- Cola de la burbuja -->
  <path d="M18 18L20 20V18H18Z" fill="url(#chatBubbleGrad)"/>

  <!-- Burbujas de texto expresivas -->
  <ellipse cx="7" cy="8" rx="2" ry="1.2" fill="#F8F5F0" opacity="0.9"/>
  <ellipse cx="11" cy="10" rx="2.5" ry="1.5" fill="#F8F5F0" opacity="0.8"/>
  <ellipse cx="6.5" cy="13" rx="1.8" ry="1.1" fill="#F8F5F0" opacity="0.7"/>
  <ellipse cx="16" cy="12" rx="1.5" ry="1" fill="#F8F5F0" opacity="0.6"/>

  <!-- Puntos suspensivos animados -->
  <g opacity="0.8">
    <circle cx="16" cy="15" r="0.6" fill="#A67C52">
      <animate attributeName="r" values="0.6;0.9;0.6" dur="1.5s" repeatCount="indefinite"/>
    </circle>
    <circle cx="17.5" cy="15" r="0.6" fill="#A67C52">
      <animate attributeName="r" values="0.6;0.9;0.6" dur="1.5s" begin="0.3s" repeatCount="indefinite"/>
    </circle>
    <circle cx="19" cy="15" r="0.6" fill="#A67C52">
      <animate attributeName="r" values="0.6;0.9;0.6" dur="1.5s" begin="0.6s" repeatCount="indefinite"/>
    </circle>
  </g>

  <!-- Elementos expresivos -->
  <g opacity="0.6">
    <!-- Corazón pequeño -->
    <path d="M14.5 6.5C14.2 6.2 13.8 6.2 13.5 6.5C13.2 6.8 13.2 7.2 13.5 7.5L14 8L14.5 7.5C14.8 7.2 14.8 6.8 14.5 6.5Z" fill="#C4A57B"/>
    <!-- Estrella pequeña -->
    <path d="M8.5 6L9 7.5L10.5 6L9 7.5L8.5 6Z" fill="#A67C52"/>
  </g>

  <!-- Brillo sutil -->
  <ellipse cx="12" cy="9" rx="4" ry="3" fill="#F8F5F0" opacity="0.3"/>
</svg>
