<svg xmlns="http://www.w3.org/2000/svg" viewBox="0 0 24 24">
  <defs>
    <linearGradient id="coffeeGradient" x1="0%" y1="0%" x2="100%" y2="100%">
      <stop offset="0%" style="stop-color:#8B6F47"/>
      <stop offset="50%" style="stop-color:#C4A57B"/>
      <stop offset="100%" style="stop-color:#6D4C41"/>
    </linearGradient>
  </defs>

  <!-- Taza elegante -->
  <path fill="url(#coffeeGradient)" d="M4 12h12a3 3 0 0 1 3 3v2a3 3 0 0 1-3 3H4v-8z"/>

  <!-- Asa de la taza -->
  <path fill="url(#coffeeGradient)" d="M17 13v4a2 2 0 0 1 2 2h1a1 1 0 0 1 1-1v-3a1 1 0 0 1-1-1h-1a2 2 0 0 1-2-1z"/>

  <!-- Líquido (café) -->
  <path fill="#5D3E2A" d="M5 13h10v5H5v-5z" opacity="0.8"/>

  <!-- Vapores -->
  <circle cx="7" cy="11" r="1" fill="#E8C4A0" opacity="0.6">
    <animate attributeName="cy" values="11;9;11" dur="2s" repeatCount="indefinite"/>
    <animate attributeName="opacity" values="0.6;0.3;0.6" dur="2s" repeatCount="indefinite"/>
  </circle>
  <circle cx="9" cy="10" r="0.8" fill="#E8C4A0" opacity="0.5">
    <animate attributeName="cy" values="10;8;10" dur="2.5s" repeatCount="indefinite"/>
    <animate attributeName="opacity" values="0.5;0.2;0.5" dur="2.5s" repeatCount="indefinite"/>
  </circle>
  <circle cx="11" cy="11.5" r="0.9" fill="#E8C4A0" opacity="0.4">
    <animate attributeName="cy" values="11.5;9.5;11.5" dur="2.2s" repeatCount="indefinite"/>
    <animate attributeName="opacity" values="0.4;0.1;0.4" dur="2.2s" repeatCount="indefinite"/>
  </circle>
</svg>
