<svg xmlns="http://www.w3.org/2000/svg" viewBox="0 0 24 24"><path fill="#2c2c2c" d="M19.14 12.94a7.967 7.967 0 000-1.88l2.03-1.58a.5.5 0 00.12-.64l-1.92-3.32a.5.5 0 00-.6-.22l-2.39.96a7.994 7.994 0 00-1.63-.95l-.36-2.54a.5.5 0 00-.5-.43h-3.84a.5.5 0 00-.5.43l-.36 2.54a8.09 8.09 0 00-1.63.95l-2.39-.96a.5.5 0 00-.6.22L2.71 8.84a.5.5 0 00.12.64l2.03 1.58c-.05.31-.08.62-.08.94s.03.63.08.94l-2.03 1.58a.5.5 0 00-.12.64l1.92 3.32c.13.22.39.31.6.22l2.39-.96c.5.38 1.05.7 1.63.95l.36 2.54c.05.24.26.43.5.43h3.84c.24 0 .45-.19.5-.43l.36-2.54c.58-.25 1.13-.57 1.63-.95l2.39.96c.22.09.47 0 .6-.22l1.92-3.32a.5.5 0 00-.12-.64l-2.03-1.58zM12 15.5a3.5 3.5 0 110-7 3.5 3.5 0 010 7z"/></svg>
