<svg width="24" height="24" viewBox="0 0 24 24" fill="none" xmlns="http://www.w3.org/2000/svg">
  <!-- Engranaje Sharp Style - Material Design -->
  <!-- Engranaje exterior -->
  <path d="M19.14 12.94C19.57 12.24 19.86 11.42 19.96 10.54L21.96 10.54C22.03 11.08 22.06 11.63 22.06 12.18C22.06 12.73 22.03 13.28 21.96 13.82L19.96 13.82C19.86 12.94 19.57 12.24 19.14 12.94ZM12 15.6C13.18 15.6 14.12 14.66 14.12 13.48C14.12 12.3 13.18 11.36 12 11.36C10.82 11.36 9.88 12.3 9.88 13.48C9.88 14.66 10.82 15.6 12 15.6ZM12 17.6C9.74 17.6 7.8 15.66 7.8 13.48C7.8 11.3 9.74 9.36 12 9.36C14.26 9.36 16.2 11.3 16.2 13.48C16.2 15.66 14.26 17.6 12 17.6ZM12 2L10.09 4.26L7.27 3.5L6.91 6.91L4.09 7.68L6.35 10.09L4.09 12.5L6.91 13.27L7.27 16.68L10.09 15.91L12 18.18L13.91 15.91L16.73 16.68L17.09 13.27L19.91 12.5L17.65 10.09L19.91 7.68L17.09 6.91L16.73 3.5L13.91 4.26L12 2Z" fill="#6C5D4F"/>
  <!-- Centro del engranaje -->
  <circle cx="12" cy="12" r="2" fill="#8B6F47"/>
  <!-- Detalle central -->
  <circle cx="12" cy="12" r="1" fill="#A67C52"/>
</svg>
