<svg xmlns="http://www.w3.org/2000/svg" viewBox="0 0 24 24">
  <defs>
    <linearGradient id="gearGradient" x1="0%" y1="0%" x2="100%" y2="100%">
      <stop offset="0%" style="stop-color:#C4A57B"/>
      <stop offset="30%" style="stop-color:#B8956A"/>
      <stop offset="70%" style="stop-color:#A67C52"/>
      <stop offset="100%" style="stop-color:#8B6F47"/>
    </linearGradient>
    <radialGradient id="gearCenter" cx="50%" cy="50%" r="30%">
      <stop offset="0%" style="stop-color:#E8C4A0"/>
      <stop offset="100%" style="stop-color:#A67C52"/>
    </radialGradient>
    <filter id="gearGlow">
      <feGaussianBlur stdDeviation="0.8" result="coloredBlur"/>
      <feMerge>
        <feMergeNode in="coloredBlur"/>
        <feMergeNode in="SourceGraphic"/>
      </feMerge>
    </filter>
  </defs>

  <!-- Engranaje exterior -->
  <path fill="url(#gearGradient)" d="M19.14 12.94a7.967 7.967 0 000-1.88l2.03-1.58a.5.5 0 00.12-.64l-1.92-3.32a.5.5 0 00-.6-.22l-2.39.96a7.994 7.994 0 00-1.63-.95l-.36-2.54a.5.5 0 00-.5-.43h-3.84a.5.5 0 00-.5.43l-.36 2.54a8.09 8.09 0 00-1.63.95l-2.39-.96a.5.5 0 00-.6.22L2.71 8.84a.5.5 0 00.12.64l2.03 1.58c-.05.31-.08.62-.08.94s.03.63.08.94l-2.03 1.58a.5.5 0 00-.12.64l1.92 3.32c.13.22.39.31.6.22l2.39-.96c.5.38 1.05.7 1.63.95l.36 2.54c.05.24.26.43.5.43h3.84c.24 0 .45-.19.5-.43l.36-2.54c.58-.25 1.13-.57 1.63-.95l2.39.96c.22.09.47 0 .6-.22l1.92-3.32a.5.5 0 00-.12-.64l-2.03-1.58z" filter="url(#gearGlow)"/>

  <!-- Centro del engranaje -->
  <circle cx="12" cy="12" r="2.5" fill="url(#gearCenter)"/>

  <!-- Detalles del centro -->
  <circle cx="12" cy="12" r="1.5" fill="#8B6F47" opacity="0.8"/>
  <circle cx="12" cy="12" r="0.8" fill="#C4A57B"/>

  <!-- Dientes del engranaje mejorados -->
  <g stroke="#A67C52" stroke-width="0.3" fill="none" opacity="0.6">
    <line x1="12" y1="2" x2="12" y2="3"/>
    <line x1="19.66" y1="4.34" x2="18.83" y2="5.17"/>
    <line x1="21.66" y1="7.66" x2="20.83" y2="8.49"/>
    <line x1="21.66" y1="16.34" x2="20.83" y2="15.51"/>
    <line x1="19.66" y1="19.66" x2="18.83" y2="18.83"/>
    <line x1="12" y1="22" x2="12" y2="21"/>
    <line x1="4.34" y1="19.66" x2="5.17" y2="18.83"/>
    <line x1="2.34" y1="16.34" x2="3.17" y2="15.51"/>
    <line x1="2.34" y1="7.66" x2="3.17" y2="8.49"/>
    <line x1="4.34" y1="4.34" x2="5.17" y2="5.17"/>
  </g>
</svg>
