<svg width="24" height="24" viewBox="0 0 24 24" fill="none" xmlns="http://www.w3.org/2000/svg">
  <!-- Engranaje elegante estilo cafetería -->
  <defs>
    <radialGradient id="gearGradient" cx="50%" cy="50%" r="50%">
      <stop offset="0%" style="stop-color:#C4A57B"/>
      <stop offset="40%" style="stop-color:#A67C52"/>
      <stop offset="80%" style="stop-color:#8B6F47"/>
      <stop offset="100%" style="stop-color:#6C5D4F"/>
    </radialGradient>
    <linearGradient id="gearCenter" x1="0%" y1="0%" x2="100%" y2="100%">
      <stop offset="0%" style="stop-color:#E8C4A0"/>
      <stop offset="100%" style="stop-color:#A55725"/>
    </linearGradient>
  </defs>

  <!-- Círculo exterior del engranaje -->
  <circle cx="12" cy="12" r="9" fill="url(#gearGradient)" stroke="#6C5D4F" stroke-width="0.5"/>

  <!-- Dientes del engranaje -->
  <g stroke="#8B6F47" stroke-width="0.8" fill="none">
    <!-- Dientes principales -->
    <line x1="12" y1="3" x2="12" y2="4"/>
    <line x1="18.59" y1="4.76" x2="18.12" y2="5.88"/>
    <line x1="20.78" y1="8.59" x2="19.9" y2="9.46"/>
    <line x1="20.78" y1="15.41" x2="19.9" y2="14.54"/>
    <line x1="18.59" y1="19.24" x2="18.12" y2="18.12"/>
    <line x1="12" y1="21" x2="12" y2="20"/>
    <line x1="5.41" y1="19.24" x2="5.88" y2="18.12"/>
    <line x1="3.22" y1="15.41" x2="4.1" y2="14.54"/>
    <line x1="3.22" y1="8.59" x2="4.1" y2="9.46"/>
    <line x1="5.41" y1="4.76" x2="5.88" y2="5.88"/>
  </g>

  <!-- Centro del engranaje -->
  <circle cx="12" cy="12" r="3" fill="url(#gearCenter)"/>
  <circle cx="12" cy="12" r="2" fill="#A55725" opacity="0.8"/>
  <circle cx="12" cy="12" r="1" fill="#C4A57B"/>

  <!-- Detalle central -->
  <path d="M11 12 L12 11 L13 12 L12 13 Z" fill="#8B6F47" opacity="0.6"/>

  <!-- Pequeños tornillos decorativos -->
  <g fill="#6C5D4F" opacity="0.5">
    <circle cx="12" cy="7" r="0.3"/>
    <circle cx="16.5" cy="12" r="0.3"/>
    <circle cx="12" cy="17" r="0.3"/>
    <circle cx="7.5" cy="12" r="0.3"/>
  </g>

  <!-- Efecto de rotación sutil -->
  <animateTransform attributeName="transform" attributeType="XML" type="rotate" from="0 12 12" to="360 12 12" dur="20s" repeatCount="indefinite"/>
</svg>
