<svg width="24" height="24" viewBox="0 0 24 24" fill="none" xmlns="http://www.w3.org/2000/svg">
  <!-- Ícono de engranaje perfecto y detallado -->
  <defs>
    <!-- Gradiente principal del engranaje -->
    <radialGradient id="gearGradient" cx="50%" cy="50%" r="50%">
      <stop offset="0%" style="stop-color:#C4A57B"/>
      <stop offset="40%" style="stop-color:#A67C52"/>
      <stop offset="80%" style="stop-color:#8B6F47"/>
      <stop offset="100%" style="stop-color:#6D4C41"/>
    </radialGradient>
    <!-- Centro metálico -->
    <radialGradient id="centerGradient" cx="50%" cy="50%" r="50%">
      <stop offset="0%" style="stop-color:#F8F5F0"/>
      <stop offset="50%" style="stop-color:#C4A57B"/>
      <stop offset="100%" style="stop-color:#8B6F47"/>
    </radialGradient>
    <!-- Sombra sutil -->
    <filter id="gearShadow" x="-20%" y="-20%" width="140%" height="140%">
      <feDropShadow dx="0" dy="1" stdDeviation="0.8" flood-color="#3E2723" flood-opacity="0.2"/>
    </filter>
  </defs>

  <!-- Círculo exterior del engranaje -->
  <circle cx="12" cy="12" r="9.5" fill="url(#gearGradient)" stroke="#6D4C41" stroke-width="0.5" filter="url(#gearShadow)"/>

  <!-- Dientes del engranaje -->
  <g stroke="#8B6F47" stroke-width="0.8" fill="none">
    <!-- Dientes principales -->
    <line x1="12" y1="2.5" x2="12" y2="4"/>
    <line x1="19.1" y1="4.9" x2="18" y2="6.1"/>
    <line x1="21.1" y1="8.9" x2="19.9" y2="9.9"/>
    <line x1="21.1" y1="15.1" x2="19.9" y2="14.1"/>
    <line x1="19.1" y1="19.1" x2="18" y2="17.9"/>
    <line x1="12" y1="21.5" x2="12" y2="20"/>
    <line x1="4.9" y1="19.1" x2="6.1" y2="17.9"/>
    <line x1="2.9" y1="15.1" x2="4.1" y2="14.1"/>
    <line x1="2.9" y1="8.9" x2="4.1" y2="9.9"/>
    <line x1="4.9" y1="4.9" x2="6.1" y2="6.1"/>
  </g>

  <!-- Centro del engranaje -->
  <circle cx="12" cy="12" r="4" fill="url(#centerGradient)" stroke="#6D4C41" stroke-width="0.3"/>
  <circle cx="12" cy="12" r="2.5" fill="#8B6F47"/>
  <circle cx="12" cy="12" r="1.5" fill="#C4A57B"/>
  <circle cx="12" cy="12" r="0.8" fill="#F8F5F0" opacity="0.9"/>

  <!-- Detalle central -->
  <path d="M11.5 12 L12.5 12 M12 11.5 L12 12.5" stroke="#6D4C41" stroke-width="0.3"/>

  <!-- Tornillos decorativos -->
  <g fill="#6D4C41" opacity="0.7">
    <circle cx="12" cy="7" r="0.4"/>
    <circle cx="17" cy="12" r="0.4"/>
    <circle cx="12" cy="17" r="0.4"/>
    <circle cx="7" cy="12" r="0.4"/>
  </g>

  <!-- Detalles de los dientes -->
  <g stroke="#A67C52" stroke-width="0.3" opacity="0.6">
    <line x1="12" y1="3" x2="12" y2="3.5"/>
    <line x1="18.5" y1="5.5" x2="18.2" y2="6"/>
    <line x1="20.5" y1="9.5" x2="20" y2="9.8"/>
    <line x1="20.5" y1="14.5" x2="20" y2="14.2"/>
    <line x1="18.5" y1="18.5" x2="18.2" y2="18"/>
    <line x1="12" y1="21" x2="12" y2="20.5"/>
    <line x1="5.5" y1="18.5" x2="6" y2="18.2"/>
    <line x1="3.5" y1="14.5" x2="4" y2="14.2"/>
    <line x1="3.5" y1="9.5" x2="4" y2="9.8"/>
    <line x1="5.5" y1="5.5" x2="6" y2="6"/>
  </g>
</svg>
