<svg width="24" height="24" viewBox="0 0 24 24" fill="none" xmlns="http://www.w3.org/2000/svg">
  <!-- Corazón Sharp Style - Material Design -->
  <path d="M12 21.35L10.55 20.03C5.4 15.36 2 12.27 2 8.5C2 5.41 4.42 3 7.5 3C9.24 3 10.91 3.81 12 5.09C13.09 3.81 14.76 3 16.5 3C19.58 3 22 5.42 22 8.5C22 12.27 18.6 15.36 13.45 20.03L12 21.35Z" fill="#A55725" stroke="#8B6F47" stroke-width="0.3"/>
  <!-- Brillo interno -->
  <path d="M12 19.1C11.2 18.5 9.8 16.9 9.8 16.9C8.2 15.3 7 13.8 7 12.2C7 10.6 8.6 9 10.2 9C11.8 9 13.4 10.6 13.4 12.2C13.4 13.8 12.2 15.3 10.6 16.9C10.6 16.9 9.2 18.5 12 19.1Z" fill="#C4A57B" opacity="0.4"/>
</svg>
