<svg width="24" height="24" viewBox="0 0 24 24" fill="none" xmlns="http://www.w3.org/2000/svg">
<path d="M6.62 10.79C8.06 13.62 10.38 15.93 13.21 17.38L15.41 19.58C15.77 19.94 16.29 20.05 16.78 19.86C17.72 19.5 19.85 18.99 22 18.17C22.68 17.9 23.03 17.15 22.75 16.47L19.79 9.3C19.56 8.78 18.99 8.44 18.42 8.52L14.77 9.07C14.28 9.15 13.84 9.42 13.54 9.81L12 11.83C9.09 9.27 7.15 7.31 4.7 4.7L6.72 3.19C7.11 2.89 7.38 2.45 7.46 1.96L8.01 0.31C8.09 -0.27 7.75 -0.84 7.23 -1.07L0.06 -4.03C-0.62 -4.31 -1.37 -3.96 -1.64 -3.28C-2.46 -1.15 -2.97 0.98 -3.33 1.92C-3.52 2.41 -3.41 2.93 -3.05 3.29L-0.85 5.49C-0.56 5.78 0 6 0 6H0C0 6 0 6 0 6L6.62 10.79Z" fill="#6C5D4F"/>
</svg>
