<svg width="24" height="24" viewBox="0 0 24 24" fill="none" xmlns="http://www.w3.org/2000/svg">
  <!-- Ãcono de estrella perfecto y brillante -->
  <defs>
    <!-- Gradiente dorado principal -->
    <radialGradient id="starGradient" cx="50%" cy="50%" r="50%">
      <stop offset="0%" style="stop-color:#F8F5F0"/>
      <stop offset="20%" style="stop-color:#E8C4A0"/>
      <stop offset="50%" style="stop-color:#DAA063"/>
      <stop offset="80%" style="stop-color:#C4A57B"/>
      <stop offset="100%" style="stop-color:#A67C52"/>
    </radialGradient>
    <!-- Efecto de brillo -->
    <filter id="starGlow" x="-30%" y="-30%" width="160%" height="160%">
      <feGaussianBlur stdDeviation="2" result="coloredBlur"/>
      <feMerge>
        <feMergeNode in="coloredBlur"/>
        <feMergeNode in="SourceGraphic"/>
      </feMerge>
    </filter>
  </defs>

  <!-- Estrella principal de 5 puntas -->
  <path d="M12 2L15.09 8.26L22 9.27L17 14.14L18.18 21.02L12 17.77L5.82 21.02L7 14.14L2 9.27L8.91 8.26L12 2Z" fill="url(#starGradient)" stroke="#8B6F47" stroke-width="0.5" filter="url(#starGlow)"/>

  <!-- Centro brillante -->
  <circle cx="12" cy="12" r="3" fill="#F8F5F0" opacity="0.9"/>
  <circle cx="12" cy="12" r="2" fill="#E8C4A0" opacity="0.8"/>
  <circle cx="12" cy="12" r="1" fill="#DAA063"/>

  <!-- Puntos de luz en las puntas -->
  <g opacity="0.8">
    <circle cx="12" cy="3" r="0.8" fill="#FFF3E0"/>
    <circle cx="20" cy="10" r="0.6" fill="#FFF3E0"/>
    <circle cx="18" cy="20" r="0.7" fill="#FFF3E0"/>
    <circle cx="6" cy="20" r="0.6" fill="#FFF3E0"/>
    <circle cx="4" cy="10" r="0.7" fill="#FFF3E0"/>
  </g>

  <!-- Brillo interno -->
  <path d="M12 6L14.5 10.5L19.5 11L16.5 14L17.5 19L12 16.5L6.5 19L7.5 14L4.5 11L9.5 10.5L12 6Z" fill="#FFF3E0" opacity="0.4"/>

  <!-- Rayos sutiles -->
  <g stroke="#DAA063" stroke-width="0.3" opacity="0.6">
    <line x1="12" y1="1" x2="12" y2="2"/>
    <line x1="23" y1="12" x2="22" y2="12"/>
    <line x1="12" y1="23" x2="12" y2="22"/>
    <line x1="1" y1="12" x2="2" y2="12"/>
  </g>

  <!-- Efecto de brillo pulsante -->
  <circle cx="12" cy="12" r="4" fill="none" stroke="#DAA063" stroke-width="0.5" opacity="0.5">
    <animate attributeName="r" values="4;5;4" dur="3s" repeatCount="indefinite"/>
    <animate attributeName="opacity" values="0.5;0.2;0.5" dur="3s" repeatCount="indefinite"/>
  </circle>
</svg>
