<svg xmlns="http://www.w3.org/2000/svg" viewBox="0 0 24 24">
  <defs>
    <radialGradient id="sunGradient" cx="50%" cy="50%" r="50%">
      <stop offset="0%" style="stop-color:#FFE082"/>
      <stop offset="40%" style="stop-color:#FFC107"/>
      <stop offset="80%" style="stop-color:#FF8F00"/>
      <stop offset="100%" style="stop-color:#E65100"/>
    </radialGradient>
    <filter id="sunGlow">
      <feGaussianBlur stdDeviation="3" result="coloredBlur"/>
      <feMerge>
        <feMergeNode in="coloredBlur"/>
        <feMergeNode in="SourceGraphic"/>
      </feMerge>
    </filter>
  </defs>

  <!-- Círculo principal del sol -->
  <circle cx="12" cy="12" r="6" fill="url(#sunGradient)" filter="url(#sunGlow)"/>

  <!-- Rayos del sol -->
  <g stroke="#FFC107" stroke-width="2" stroke-linecap="round">
    <!-- Rayos principales -->
    <line x1="12" y1="1" x2="12" y2="4"/>
    <line x1="12" y1="20" x2="12" y2="23"/>
    <line x1="1" y1="12" x2="4" y2="12"/>
    <line x1="20" y1="12" x2="23" y2="12"/>

    <!-- Rayos diagonales -->
    <line x1="4.93" y1="4.93" x2="6.34" y2="6.34"/>
    <line x1="17.66" y1="17.66" x2="19.07" y2="19.07"/>
    <line x1="19.07" y1="4.93" x2="17.66" y2="6.34"/>
    <line x1="6.34" y1="17.66" x2="4.93" y2="19.07"/>

    <!-- Rayos adicionales para más detalle -->
    <line x1="2.93" y1="9.07" x2="5.07" y2="9.93"/>
    <line x1="18.93" y1="14.07" x2="16.79" y2="14.93"/>
    <line x1="14.07" y1="18.93" x2="14.93" y2="16.79"/>
    <line x1="9.07" y1="2.93" x2="9.93" y2="5.07"/>
  </g>

  <!-- Núcleo brillante -->
  <circle cx="12" cy="12" r="2" fill="#FFF3E0" opacity="0.8"/>

  <!-- Efecto de brillo -->
  <circle cx="10" cy="10" r="0.8" fill="#FFECB3" opacity="0.9"/>
</svg>
