<svg width="24" height="24" viewBox="0 0 24 24" fill="none" xmlns="http://www.w3.org/2000/svg">
  <!-- Ícono de papelera perfecto y elegante -->
  <defs>
    <!-- Gradiente principal de la papelera -->
    <linearGradient id="trashGradient" x1="0%" y1="0%" x2="100%" y2="100%">
      <stop offset="0%" style="stop-color:#C4A57B"/>
      <stop offset="50%" style="stop-color:#A67C52"/>
      <stop offset="100%" style="stop-color:#8B6F47"/>
    </linearGradient>
    <!-- Sombra sutil -->
    <filter id="trashShadow" x="-20%" y="-20%" width="140%" height="140%">
      <feDropShadow dx="0" dy="1" stdDeviation="0.5" flood-color="#3E2723" flood-opacity="0.2"/>
    </filter>
  </defs>

  <!-- Contenedor principal de la papelera -->
  <path d="M6 5H8V19C8 20.1 8.9 21 10 21H14C15.1 21 16 20.1 16 19V5H18V19C18 21.2 16.2 23 14 23H10C7.8 23 6 21.2 6 19V5Z" fill="url(#trashGradient)" stroke="#6D4C41" stroke-width="0.5" filter="url(#trashShadow)"/>

  <!-- Tapa superior -->
  <path d="M4 5H20V7C20 8.1 19.1 9 18 9H6C4.9 9 4 8.1 4 7V5Z" fill="#A67C52" stroke="#8B6F47" stroke-width="0.3"/>

  <!-- Líneas de la tapa -->
  <rect x="5" y="6" width="14" height="1" fill="#8B6F47" opacity="0.6"/>
  <rect x="7" y="6.5" width="10" height="0.5" fill="#C4A57B" opacity="0.4"/>

  <!-- Manijas laterales -->
  <path d="M7 4 Q8 3 9 4 L9 6" stroke="#C4A57B" stroke-width="1.5" stroke-linecap="round" fill="none"/>
  <path d="M15 4 Q16 3 17 4 L17 6" stroke="#C4A57B" stroke-width="1.5" stroke-linecap="round" fill="none"/>

  <!-- Detalles de las manijas -->
  <circle cx="8" cy="4" r="0.4" fill="#A67C52"/>
  <circle cx="16" cy="4" r="0.4" fill="#A67C52"/>

  <!-- Papeles arrugados dentro -->
  <g opacity="0.7">
    <path d="M9 11 Q10 10 11 11 Q10 12 9 11" fill="#E8C4A0" stroke="#D4A574" stroke-width="0.2"/>
    <path d="M12 13 Q13 12 14 13 Q13 14 12 13" fill="#E8C4A0" stroke="#D4A574" stroke-width="0.2"/>
    <path d="M10 15 Q11 14 12 15 Q11 16 10 15" fill="#E8C4A0" stroke="#D4A574" stroke-width="0.2"/>
  </g>

  <!-- Líneas de arrugas en los papeles -->
  <g stroke="#C4A57B" stroke-width="0.3" opacity="0.5">
    <path d="M9.5 11.5 Q10 11 10.5 11.5"/>
    <path d="M12.5 13.5 Q13 13 13.5 13.5"/>
    <path d="M10.5 15.5 Q11 15 11.5 15.5"/>
  </g>

  <!-- Sombra base -->
  <ellipse cx="12" cy="22.5" rx="8" ry="1.5" fill="#3E2723" opacity="0.15"/>
</svg>
