<svg width="24" height="24" viewBox="0 0 24 24" fill="none" xmlns="http://www.w3.org/2000/svg">
  <!-- Ícono de WhatsApp perfecto y moderno -->
  <defs>
    <!-- Gradiente verde WhatsApp -->
    <linearGradient id="whatsappGradient" x1="0%" y1="0%" x2="100%" y2="100%">
      <stop offset="0%" style="stop-color:#7FD99F"/>
      <stop offset="50%" style="stop-color:#5BC885"/>
      <stop offset="100%" style="stop-color:#4CAF50"/>
    </linearGradient>
    <!-- Efecto de brillo -->
    <filter id="whatsappGlow" x="-20%" y="-20%" width="140%" height="140%">
      <feDropShadow dx="0" dy="1" stdDeviation="1" flood-color="#4CAF50" flood-opacity="0.3"/>
    </filter>
  </defs>

  <!-- Círculo de fondo -->
  <circle cx="12" cy="12" r="11" fill="url(#whatsappGradient)" stroke="#388E3C" stroke-width="0.5" filter="url(#whatsappGlow)"/>

  <!-- Ícono de teléfono -->
  <path d="M17 14L15.59 12.59L13.41 14.76L14.76 16.11L17 14ZM17 10V8H15V10H17ZM17 6H15V4H17V6ZM9 14L10.41 15.41L12.59 13.24L11.24 11.89L9 14ZM8 10H10V8H8V10ZM8 6H10V4H8V6ZM6.76 9.24L8.11 10.59L10.29 8.41L8.94 7.06L6.76 9.24Z" fill="#FFFFFF"/>

  <!-- Burbuja de mensaje -->
  <path d="M18 16.5C17.26 16.5 16.61 16.2 16.11 15.74L14.5 17.25L15.25 16.5C15.25 15.67 14.58 15 13.75 15H8.25C7.42 15 6.75 15.67 6.75 16.5C6.75 17.33 7.42 18 8.25 18H15.5L18 20.5V16.5Z" fill="#FFFFFF" opacity="0.9"/>

  <!-- Punto de notificación -->
  <circle cx="18" cy="6" r="1.5" fill="#FF5722"/>
  <circle cx="18" cy="6" r="0.8" fill="#FFFFFF"/>
</svg>
