<svg xmlns="http://www.w3.org/2000/svg" viewBox="0 0 32 32"><path fill="#25D366" d="M16 0C7.164 0 0 7.163 0 16c0 2.826.736 5.585 2.138 8.024L.07 31.765l7.958-2.087A15.93 15.93 0 0016 32c8.837 0 16-7.163 16-16S24.837 0 16 0zm0 29.333c-2.547 0-5.042-.726-7.21-2.098l-.517-.327-5.363 1.407 1.43-5.223-.358-.536A13.276 13.276 0 012.667 16c0-7.364 5.97-13.333 13.333-13.333S29.333 8.636 29.333 16 23.364 29.333 16 29.333zm7.308-9.952c-.4-.2-2.37-1.17-2.738-1.303-.367-.134-.634-.2-.9.2-.268.4-1.035 1.303-1.27 1.57-.233.267-.467.3-.867.1-.4-.2-1.687-.622-3.213-1.984-1.188-1.06-1.99-2.37-2.223-2.77-.233-.4-.025-.617.175-.816.18-.18.4-.467.6-.7.2-.234.267-.4.4-.667.134-.267.067-.5-.033-.7-.1-.2-.9-2.17-1.234-2.97-.325-.78-.655-.674-.9-.687-.233-.012-.5-.015-.767-.015s-.7.1-1.067.5c-.367.4-1.4 1.37-1.4 3.337s1.433 3.87 1.633 4.137c.2.267 2.817 4.3 6.825 6.033.954.413 1.7.66 2.28.845.958.304 1.83.26 2.52.158.768-.115 2.37-.97 2.703-1.905.334-.936.334-1.738.234-1.905-.1-.167-.367-.267-.767-.467z"/></svg>
